<svg viewBox="0 0 690 388" xmlns="http://www.w3.org/2000/svg">
<defs>
  <linearGradient id="gbl" x1="0" y1="0" x2="1" y2="0">
    <stop offset="0%" stop-color="#0c1e3d"/><stop offset="100%" stop-color="#060609"/>
  </linearGradient>
  <linearGradient id="gor" x1="0" y1="0" x2="1" y2="0">
    <stop offset="0%" stop-color="#060609"/><stop offset="100%" stop-color="#261006"/>
  </linearGradient>
  <linearGradient id="vtop" x1="0" y1="0" x2="0" y2="1">
    <stop offset="0%" stop-color="#000" stop-opacity="0.7"/>
    <stop offset="100%" stop-color="#000" stop-opacity="0"/>
  </linearGradient>
  <linearGradient id="vbot" x1="0" y1="0" x2="0" y2="1">
    <stop offset="0%" stop-color="#000" stop-opacity="0"/>
    <stop offset="100%" stop-color="#000" stop-opacity="0.65"/>
  </linearGradient>
</defs>
<rect width="690" height="388" fill="#05050a"/>
<polygon points="0,0 345,0 300,388 0,388" fill="url(#gbl)"/>
<polygon points="345,0 690,0 690,388 390,388" fill="url(#gor)"/>
<polygon points="0,0 55,0 10,388 0,388" fill="#1a3868" opacity="0.3"/>
<polygon points="0,0 140,0 95,388 0,388" fill="#112448" opacity="0.22"/>
<polygon points="0,0 220,0 175,388 0,388" fill="#0b1830" opacity="0.28"/>
<polygon points="635,0 690,0 690,388" fill="#b03808" opacity="0.3"/>
<polygon points="550,0 690,0 690,388 648,388" fill="#741e04" opacity="0.22"/>
<polygon points="470,0 690,0 690,388 568,388" fill="#480e02" opacity="0.28"/>
<polygon points="108,0 115,0 70,388 63,388" fill="#3878e8" opacity="0.07"/>
<polygon points="298,0 302,0 257,388 253,388" fill="#88aaff" opacity="0.13"/>
<polygon points="322,0 327,0 282,388 277,388" fill="#a0bfff" opacity="0.10"/>
<polygon points="384,0 388,0 425,388 421,388" fill="#ffa060" opacity="0.13"/>
<polygon points="361,0 365,0 402,388 398,388" fill="#ffb878" opacity="0.10"/>
<polygon points="338,0 342,0 358,388 354,388" fill="#fff" opacity="0.22"/>
<polygon points="339.2,0 340.8,0 356.8,388 355.2,388" fill="#fff" opacity="0.55"/>
<rect x="0" y="0" width="690" height="81" fill="url(#vtop)"/>
<rect x="0" y="307" width="690" height="81" fill="url(#vbot)"/>
<circle cx="42" cy="70" r="2.5" fill="#4888ff" opacity="0.55"/>
<circle cx="200" cy="50" r="3" fill="#80a8ff" opacity="0.35"/>
<circle cx="480" cy="50" r="3" fill="#ffb070" opacity="0.35"/>
<circle cx="638" cy="70" r="2.5" fill="#ff8848" opacity="0.55"/>
</svg>
