<svg viewBox="0 0 690 388" xmlns="http://www.w3.org/2000/svg">
<defs>
  <linearGradient id="gv" x1="0" y1="0" x2="1" y2="1">
    <stop offset="0%" stop-color="#011a0a"/>
    <stop offset="100%" stop-color="#020e04"/>
  </linearGradient>
  <radialGradient id="glow" cx="50%" cy="50%" r="60%">
    <stop offset="0%" stop-color="#00e676" stop-opacity="0.18"/>
    <stop offset="100%" stop-color="#00e676" stop-opacity="0"/>
  </radialGradient>
  <linearGradient id="vbot" x1="0" y1="0" x2="0" y2="1">
    <stop offset="0%" stop-color="#000" stop-opacity="0"/>
    <stop offset="100%" stop-color="#000" stop-opacity="0.7"/>
  </linearGradient>
</defs>
<rect width="690" height="388" fill="url(#gv)"/>
<rect width="690" height="388" fill="url(#glow)"/>
<polygon points="0,0 30,0 0,30" fill="#00e676" opacity="0.35"/>
<polygon points="0,0 8,0 0,8" fill="#00ff88" opacity="0.6"/>
<polygon points="690,0 660,0 690,30" fill="#00e676" opacity="0.35"/>
<polygon points="690,388 690,358 660,388" fill="#00b84a" opacity="0.3"/>
<polygon points="0,388 30,388 0,358" fill="#00b84a" opacity="0.3"/>
<polygon points="100,0 106,0 61,388 55,388" fill="#00e676" opacity="0.06"/>
<polygon points="200,0 204,0 159,388 155,388" fill="#00c85a" opacity="0.05"/>
<polygon points="300,0 304,0 259,388 255,388" fill="#00e676" opacity="0.08"/>
<polygon points="400,0 404,0 440,388 436,388" fill="#00c85a" opacity="0.06"/>
<polygon points="500,0 504,0 540,388 536,388" fill="#00e676" opacity="0.05"/>
<polygon points="600,0 604,0 640,388 636,388" fill="#00c85a" opacity="0.07"/>
<rect x="0" y="0" width="690" height="2" fill="#00e676" opacity="0.5"/>
<rect x="0" y="386" width="690" height="2" fill="#00b84a" opacity="0.4"/>
<rect x="0" y="316" width="690" height="72" fill="url(#vbot)"/>
<circle cx="60" cy="54" r="2" fill="#00ff88" opacity="0.6"/>
<circle cx="180" cy="36" r="1.5" fill="#00e676" opacity="0.5"/>
<circle cx="345" cy="23" r="3" fill="#00ff88" opacity="0.4"/>
<circle cx="520" cy="45" r="2" fill="#00e676" opacity="0.55"/>
<circle cx="640" cy="59" r="1.5" fill="#00ff88" opacity="0.5"/>
</svg>
